<?xml version="1.0" encoding="UTF-8" standalone="no"?> <svg id="Layer_1" data-name="Layer 1" xmlns="http://www.w3.org/2000/svg" viewBox="0 0 128 128"><defs><style>.cls-1{fill:#2d3e50;}</style></defs><title>b</title><path class="cls-1" d="M64.00475,1.906A62.094,62.094,0,1,0,126.09874,64,62.09582,62.09582,0,0,0,64.00475,1.906ZM53.24517,90.34206a3.29019,3.29019,0,0,1-4.653,4.653l-4.738-4.738-4.73794,4.738a3.28124,3.28124,0,0,1-4.64364,0,3.27,3.27,0,0,1,0-4.653l4.72855-4.738-4.72855-4.738a3.28687,3.28687,0,0,1,4.64364-4.653l4.73794,4.74745,4.738-4.74745a3.29019,3.29019,0,0,1,4.653,4.653l-4.738,4.738Zm.60406-41.73581H47.14806v6.70117a3.28921,3.28921,0,1,1-6.57841,0V48.60625H33.86849a3.28921,3.28921,0,0,1,0-6.57841h6.70117V35.32667a3.28921,3.28921,0,0,1,6.57841,0v6.70117h6.70117a3.28921,3.28921,0,0,1,0,6.57841ZM94.13151,93.89078H74.16022a3.28921,3.28921,0,1,1,0-6.57841H94.13151a3.28921,3.28921,0,1,1,0,6.57841Zm0-9.98559H74.16022a3.28924,3.28924,0,1,1,0-6.57846H94.13151a3.28924,3.28924,0,1,1,0,6.57846Zm0-35.29894H74.16022a3.28921,3.28921,0,1,1,0-6.57841H94.13151a3.28921,3.28921,0,1,1,0,6.57841Z"/></svg>