<svg xmlns="http://www.w3.org/2000/svg" viewBox="0 0 95.91 110.2"><title>Asset 31</title><g id="Layer_2" data-name="Layer 2"><g id="Layer_1-2" data-name="Layer 1"><path d="M91.54,102l-1.81-2.31-8.59,9.54h0a2.32,2.32,0,0,1-3.5,0l-8.75-9.46L60.32,109a2.32,2.32,0,0,1-3.48.11l-9.09-9.34-8.26,9.45-.15.18a2.31,2.31,0,0,1-3.53,0l-8.65-9.63-8.93,9.46h0a2.32,2.32,0,0,1-3.48,0L6.26,99.62,4.5,101.89a2.44,2.44,0,0,1-2,1.12A2.64,2.64,0,0,1,0,100.24V2.77A2.63,2.63,0,0,1,2.48,0H93.41a2.64,2.64,0,0,1,2.5,2.77v97.45h0a2.86,2.86,0,0,1-.87,2.09,2.28,2.28,0,0,1-3.49-.27ZM14.78,16H35.07v6.11H28.31V40H21.55V22.11H14.79V16ZM49.24,36.23H42.05L41,40H34L42.1,16h7.29l8.07,24h-7.2l-1-3.76ZM48,30.58,45.65,22l-2.36,8.6ZM58,16h7.35l3.81,7.38L72.9,16h7.25L73.46,27.62,80.79,40h-7.5l-4.22-7.7L64.81,40H57.38l7.43-12.5L58,16ZM71.12,76.23a2.14,2.14,0,0,1,0,4.23H19a2.14,2.14,0,0,1,0-4.23ZM81.54,62.58a2.14,2.14,0,0,1,0,4.24H18.46a2.14,2.14,0,0,1,0-4.24Zm.09-13.65a2.1,2.1,0,0,1,1.76,2.79,1.92,1.92,0,0,1-1.83,1.45H18.46a2.14,2.14,0,0,1,0-4.24ZM90.82,5.65H5.07V93.33a2.29,2.29,0,0,1,2.78.36.69.69,0,0,1,.14.15H8l8.64,9.73,8.89-9.45a2.32,2.32,0,0,1,3.48,0h0l8.56,9.55,8.3-9.53a2.31,2.31,0,0,1,3.47-.1h0l9.13,9.41,8.67-9.26a2.31,2.31,0,0,1,3.47,0l8.68,9.4L88,93.92a2.3,2.3,0,0,1,2.82-.55V5.65Z"/></g></g></svg>