<svg id="Layer_2" data-name="Layer 2" xmlns="http://www.w3.org/2000/svg" xmlns:xlink="http://www.w3.org/1999/xlink" viewBox="0 0 400 300"><defs><linearGradient id="linear-gradient" x1="40.1" y1="191.78" x2="72.83" y2="165.59" gradientUnits="userSpaceOnUse"><stop offset="0" stop-color="#cc483e"/><stop offset="1" stop-color="#411714"/></linearGradient><linearGradient id="linear-gradient-2" x1="313.82" y1="213.31" x2="339.72" y2="192.59" xlink:href="#linear-gradient"/><linearGradient id="linear-gradient-3" x1="195.28" y1="199.46" x2="226.1" y2="145.77" xlink:href="#linear-gradient"/><linearGradient id="linear-gradient-4" x1="165.9" y1="230.07" x2="200.09" y2="198.34" xlink:href="#linear-gradient"/></defs><title>PP_</title><path d="M191.72,290.29l-177-104.63c-5.64-3.16-10.47-8.36-5-11.77L187.39,71.5c2.66-1.65,6.71-2.73,9.42-1.16L382.65,178.19c5.64,3.27,6.65,12.42,1,15.69L215.06,290.12A23.54,23.54,0,0,1,191.72,290.29Z" fill="#cc483e"/><path d="M83.76,173.28c.18-.33-4.74-1.32-4.56-1.65.23-.81-2.92-1-2.7-1.79-8.29-3.67-10-4.94-16.3-11L20.51,185.93c8,4.93,16.12,9.74,24.33,14.32l45.41-27.07c.14-.62-6.66,1.67-6.49,1.06A.88.88,0,0,1,83.76,173.28Z" opacity="0.32" fill="url(#linear-gradient)"/><path d="M352.65,197.54c.16-.29-4.09-1.14-3.93-1.42.2-.69-2.52-.84-2.33-1.54-7.15-3.16-8.62-4.26-14-9.51l-34.22,23.38c6.92,4.25,13.89,8.4,21,12.35L352.26,200q.18-.8.39-1.6A.76.76,0,0,1,352.65,197.54Z" opacity="0.32" fill="url(#linear-gradient-2)"/><path d="M296,155.36s-.81,38.33-2,39.42-6.3-35.33-6.3-35.33" fill="#844040"/><ellipse cx="337.46" cy="189.77" rx="22.46" ry="13.16" fill="#ff912e"/><polygon points="315 189.77 315 185.97 317.44 189.01 315 189.77" fill="#e0944f"/><polygon points="359.93 185.97 359.93 189.77 357.07 189.77 359.16 186.72 359.93 185.97" fill="#e0944f"/><ellipse cx="337.46" cy="185.97" rx="22.46" ry="13.16" fill="#ffb92c"/><path d="M348.86,184.21a1.75,1.75,0,0,1,.18,1l-.09.35-4.1,0a1.86,1.86,0,0,0,.08-.35,1.53,1.53,0,0,0-.25-.75,2.24,2.24,0,0,0-1-.91,4.49,4.49,0,0,0-1.93-.51,4.15,4.15,0,0,0-1.83.28q-.86.37-.66,1a3.55,3.55,0,0,0,.87,1.28,15.62,15.62,0,0,1,1.24,1.43,1.5,1.5,0,0,1,.22,1.58,3.53,3.53,0,0,1-2,1.55,11.8,11.8,0,0,1-4.35.9,13.9,13.9,0,0,1-4.75-.67l-2.36,1-2.77-1.35,2.29-1a5.17,5.17,0,0,1-1.1-1,2.92,2.92,0,0,1-.54-.92,3,3,0,0,1-.14-.74,1.6,1.6,0,0,1,0-.52l.08-.2h4.1a3.27,3.27,0,0,0-.1.42,1.75,1.75,0,0,0,.33.93,3.08,3.08,0,0,0,1.36,1.16,5.83,5.83,0,0,0,2.38.62,5,5,0,0,0,2.2-.35q.85-.37.64-1a3.54,3.54,0,0,0-.91-1.28,13.13,13.13,0,0,1-1.25-1.43,1.47,1.47,0,0,1-.18-1.59,3.82,3.82,0,0,1,2.09-1.58,11.28,11.28,0,0,1,4.17-.82,12,12,0,0,1,4.45.69l2.35-1,2.57,1.4-2.36,1A3.36,3.36,0,0,1,348.86,184.21Z" fill="#ea8b24"/><ellipse cx="337.5" cy="186.13" rx="18.86" ry="11.05" fill="none" stroke="#f7931e" stroke-miterlimit="10" stroke-width="6"/><ellipse cx="337.46" cy="182.52" rx="22.46" ry="13.16" fill="#ff912e"/><polygon points="315 182.52 315 178.72 317.44 181.76 315 182.52" fill="#e0944f"/><polygon points="359.93 178.72 359.93 182.52 357.07 182.52 359.16 179.47 359.93 178.72" fill="#e0944f"/><ellipse cx="337.46" cy="178.72" rx="22.46" ry="13.16" fill="#ffb92c"/><path d="M348.86,177a1.75,1.75,0,0,1,.18,1l-.09.35-4.1,0a1.86,1.86,0,0,0,.08-.35,1.53,1.53,0,0,0-.25-.75,2.24,2.24,0,0,0-1-.91,4.49,4.49,0,0,0-1.93-.51,4.15,4.15,0,0,0-1.83.28q-.86.37-.66,1a3.55,3.55,0,0,0,.87,1.28,15.62,15.62,0,0,1,1.24,1.43,1.5,1.5,0,0,1,.22,1.58,3.53,3.53,0,0,1-2,1.55,11.8,11.8,0,0,1-4.35.9,13.9,13.9,0,0,1-4.75-.67l-2.36,1-2.77-1.35,2.29-1a5.17,5.17,0,0,1-1.1-1,2.92,2.92,0,0,1-.54-.92,3,3,0,0,1-.14-.74,1.6,1.6,0,0,1,0-.52l.08-.2h4.1a3.27,3.27,0,0,0-.1.42,1.75,1.75,0,0,0,.33.93,3.08,3.08,0,0,0,1.36,1.16,5.83,5.83,0,0,0,2.38.62,5,5,0,0,0,2.2-.35q.85-.37.64-1A3.54,3.54,0,0,0,336,179a13.13,13.13,0,0,1-1.25-1.43,1.47,1.47,0,0,1-.18-1.59,3.82,3.82,0,0,1,2.09-1.58,11.28,11.28,0,0,1,4.17-.82,12,12,0,0,1,4.45.69l2.35-1,2.57,1.4-2.36,1A3.36,3.36,0,0,1,348.86,177Z" fill="#ea8b24"/><ellipse cx="337.5" cy="178.88" rx="18.86" ry="11.05" fill="none" stroke="#f7931e" stroke-miterlimit="10" stroke-width="2"/><ellipse cx="328.68" cy="176.98" rx="22.46" ry="13.16" fill="#ff912e"/><polygon points="306.22 176.98 306.22 173.18 308.66 176.22 306.22 176.98" fill="#e0944f"/><polygon points="351.14 173.18 351.14 176.98 348.29 176.98 350.38 173.93 351.14 173.18" fill="#e0944f"/><ellipse cx="328.68" cy="173.18" rx="22.46" ry="13.16" fill="#ffb92c"/><path d="M340.07,171.42a1.75,1.75,0,0,1,.18,1l-.09.35-4.1,0a1.86,1.86,0,0,0,.08-.35,1.53,1.53,0,0,0-.25-.75,2.24,2.24,0,0,0-1-.91,4.49,4.49,0,0,0-1.93-.51,4.15,4.15,0,0,0-1.83.28q-.86.37-.66,1a3.55,3.55,0,0,0,.87,1.28,15.62,15.62,0,0,1,1.24,1.43,1.5,1.5,0,0,1,.22,1.58,3.53,3.53,0,0,1-2,1.55,11.8,11.8,0,0,1-4.35.9,13.9,13.9,0,0,1-4.75-.67l-2.36,1-2.77-1.35,2.29-1a5.17,5.17,0,0,1-1.1-1,2.92,2.92,0,0,1-.54-.92,3,3,0,0,1-.14-.74,1.6,1.6,0,0,1,0-.52l.08-.2h4.1a3.27,3.27,0,0,0-.1.42,1.75,1.75,0,0,0,.33.93,3.08,3.08,0,0,0,1.36,1.16,5.83,5.83,0,0,0,2.38.62,5,5,0,0,0,2.2-.35q.85-.37.64-1a3.54,3.54,0,0,0-.91-1.28A13.13,13.13,0,0,1,326,172a1.47,1.47,0,0,1-.18-1.59,3.82,3.82,0,0,1,2.09-1.58,11.28,11.28,0,0,1,4.17-.82,12,12,0,0,1,4.45.69l2.35-1,2.57,1.4-2.36,1A3.36,3.36,0,0,1,340.07,171.42Z" fill="#ea8b24"/><ellipse cx="328.72" cy="173.34" rx="18.86" ry="11.05" fill="none" stroke="#f7931e" stroke-miterlimit="10" stroke-width="2"/><polyline points="123.25 86.46 123.25 154.14 103.77 165.29 81.77 152.29 81.77 84.61" fill="#ff734d"/><polygon points="123.25 86.46 100.64 73.59 81.77 84.61 103.77 97.6 123.25 86.46" fill="#ffb5a4"/><polygon points="103.77 97.6 103.77 165.29 81.77 152.29 81.77 84.61 103.77 97.6" fill="#f78b72"/><polygon points="81.16 98.98 103.77 111.85 103.77 165.45 84.29 176.59 62.29 163.59 62.29 110 81.16 98.98" fill="#0523af"/><polygon points="103.77 111.85 81.16 98.98 62.29 110 84.29 122.99 103.77 111.85" fill="#fff" opacity="0.49"/><polygon points="84.29 122.99 84.29 176.59 62.29 163.59 62.29 110 84.29 122.99" opacity="0.2"/><polyline points="84.29 151.94 84.29 176.91 64.81 188.06 42.81 175.06 42.81 150.09" fill="#ffad4a"/><polygon points="84.29 151.94 61.69 139.07 42.81 150.09 64.81 163.08 84.29 151.94" fill="#fd9"/><polygon points="64.81 163.08 64.81 188.06 42.81 175.06 42.81 150.09 64.81 163.08" fill="#ffc36c"/><path d="M157.12,121c.79,2.27-1.93,46.41-.63,47s8.24-46.52,8.24-46.52" fill="#844040"/><path d="M243.71,226.53c.08,0,51.67-32.86,51.72-32.82l-86-52.4L168.1,126.53,124.5,154C135.94,160.86,231.52,221.11,243.71,226.53Z" opacity="0.32" fill="url(#linear-gradient-3)"/><path d="M142.74,240.84c5.14,1.58,12.9,9.74,18.18,10.8,3.23.65,7.92,5.22,11.18,5.47l13.1-13.79,37.92-28.2-26.82-18.58L125.5,229.39C134,235.61,132.81,237.8,142.74,240.84Z" opacity="0.32" fill="url(#linear-gradient-4)"/><path d="M190.89,185.15c-3.82-2.67-8.32-4.13-13.17-3.06-5.17,1.14-9.65,4.39-14.92,5.19-.83.13-4.16-.09-4.67.39-14.67,13.88,26.33,12.39,26.33,12.39,4-3.26,7.72-6.47,11.67-9.76C194.94,187.63,192.93,186.58,190.89,185.15Z" fill="#f8997c"/><path d="M171.59,205.27l-1.46,41.88c-.06,1.59,2.41,1.59,2.47,0l1.46-41.88C174.11,203.69,171.65,203.69,171.59,205.27Z" fill="#844040"/><path d="M202.33,227.68q-11.2-11-21.4-22.88c-1-1.21-2.77.54-1.75,1.75q10.19,11.91,21.4,22.88C201.72,230.54,203.47,228.79,202.33,227.68Z" fill="#844040"/><path d="M163,201.4q-8.69,16.41-16.38,33.33c-.65,1.44,1.47,2.69,2.13,1.25q7.68-16.91,16.38-33.33C165.91,201.24,163.78,200,163,201.4Z" fill="#844040"/><path d="M195.45,189.07a19.86,19.86,0,0,1-9.93,7.18c-5.61,1.68-13.75.89-16.7-4.89-5.36-10.5-.33-23.65-6-33.86a10.36,10.36,0,0,0-6.56-5.31c-3.67-.79-6.18,1.92-7.51,5.12-2.39,5.73-2.3,12.86-2.18,19A102,102,0,0,0,147.66,191s3.43,20.47,30.16,15a40.57,40.57,0,0,0,13.13-4.79,18,18,0,0,0,5.36-4.64C197.94,194.21,196.86,191.42,195.45,189.07Z" fill="#0523af"/><path d="M189.26,128.13s-13.84,59.73-11.45,61.31,19.34-55.81,19.34-55.81" fill="#844040"/><path d="M244.34,179.52c.79,2.27-1.93,46.41-.63,47S251.95,180,251.95,180" fill="#844040"/><polyline points="151.09 123.75 150.97 119.21 152.7 121.64 151.59 123.84" fill="#d37800"/><polyline points="306.44 156.71 306.38 151.63 304.4 152.27 305.42 156.53" fill="#d37800"/><path d="M154.23,118.93l41.34-23.87a9.64,9.64,0,0,1,9.64,0l98,56.6a6.44,6.44,0,0,1,0,11.16l-41.41,23.91a9.22,9.22,0,0,1-9.22,0l-98.38-56.8A6.35,6.35,0,0,1,154.23,118.93Z" fill="#d37800"/><path d="M154.15,113.35l41.34-23.87a9.64,9.64,0,0,1,9.64,0l98,56.6a6.44,6.44,0,0,1,0,11.16l-41.41,23.91a9.22,9.22,0,0,1-9.22,0l-98.38-56.8A6.35,6.35,0,0,1,154.15,113.35Z" fill="#fca930"/><path d="M226.62,155c.68.17,20.72,12.32,20.72,12.32l29.32-16.64-20.11-12Z" fill="#fff"/><path d="M244.16,154c.68.17,20.72,12.32,20.72,12.32L294.2,149.7l-20.11-12Z" fill="#0523af"/><path d="M213.95,208.71s-.22,3.74.94,4.78,7.39-1.86,9-.83-6.26,8.51-9,8.93-5.37-3.56-5.37-3.56v5.64l-3.16,1.8L204,224.08l.69-15.37Z" fill="#8787d1"/><path d="M203.27,211.46c3.32,2.86,6.9,2.77,11,1,3-5.22,6.46-37-1-42.06-8-5.45-20.41-4.48-22.49-3.88l-30.5,5c-2.34,4,3.86,24.84,17.4,25.42s22.19-4.51,22.19-4.51Z" fill="#124577"/><path d="M191.41,124.31a7.24,7.24,0,0,0-3.42,3.13l-.05.11c-2.15,1.75-2.48,5-4.76,6.54,0,.06-2.14,1.57-2.17,1.63s.21-2.94.2-2.91v0c-.74,2-1.46,4.06-2.1,6.12a1.27,1.27,0,0,0,.32.14l-.24.12-.21.12a.69.69,0,0,1-.41.46,1.62,1.62,0,0,0,2.26,1.91l6.9-3.37a19.23,19.23,0,0,0,2.7-.79c0-.72.11-1.44.18-2.16a6,6,0,0,0,.46-5.71.65.65,0,0,1,.12-.13l0-.08a5.25,5.25,0,0,0,2.17-3.43C193.5,125,192.51,123.8,191.41,124.31Z" fill="#f7931e"/><path d="M182.64,130.82s7.86,4.88,8.68,8.95c0,0-5.52,12-5.15,12.47,6.24,8.14-12.47-5.15-12.47-5.15S177.49,135.71,182.64,130.82Z" fill="#0523af"/><path d="M200.54,133.81c.65,5.43-6.28,13-9.2,14.45-4,2-5.56-14.64-23.16-14.57-1.14,0-6.84-2.43-9.84,5.07s0,29,2,32.75c1.76,3.31,13.5,11.25,30.25,2.75l.25-7.75s9.89-.21,15.12-7.49c4.88-6.78,7.78-17,7.32-22C209.32,135.34,204.43,132.53,200.54,133.81Z" fill="#0523af"/><path d="M182.64,130.82s7.86,4.88,8.68,8.95c0,0-5.52,12-5.15,12.47,6.24,8.14-12.47-5.15-12.47-5.15S177.49,135.71,182.64,130.82Z" fill="#8787d1"/><polyline points="193.22 110.22 214.1 114.83 210.57 144.11 190.51 137.6" fill="#0523af"/><path d="M214.77,127.19a1.67,1.67,0,0,0-2.23-1.18,1.88,1.88,0,0,0-.67-1.06,1.68,1.68,0,0,0-1.9-.08,1.94,1.94,0,0,0-.49.39l-.1-.12a1.76,1.76,0,0,0-1.91-.52,1.65,1.65,0,0,0-.52.38,26.44,26.44,0,0,0-.74-2.83c-.28-.93-.74-2.64-1.89-2.85-.75-.14-1.1.41-1.25,1.06a2,2,0,0,0-.08,1.4,15,15,0,0,0,.27,1.88c.1.88.2,1.77.28,2.65v0a.59.59,0,0,0-.42.16,3.2,3.2,0,0,0-1.13,3.61,27.62,27.62,0,0,0,2.06,5.35.61.61,0,0,0,.85.27l.09.33a.65.65,0,0,0,1.27-.07l0-.12a.62.62,0,0,0,.22.11l.05.71c.05.66,1,.66,1.24.11l.06.52c.08.73,1.24.65,1.27-.07l0-.58a.74.74,0,0,0,.55-.28.71.71,0,0,0,.46.26.6.6,0,0,0,.62.09l0,.16a.72.72,0,0,0,.85.48c0,.07,0,.14,0,.22,0,.82,1.3.93,1.28.1q0-2.47-.13-4.94a.62.62,0,0,0,.19-.14C214.26,131.27,215.41,129.05,214.77,127.19Zm-6.9-1.24a.42.42,0,0,1,.36-.05.73.73,0,0,0-.08.16h-.39A.53.53,0,0,1,207.87,125.95Z" fill="#f7931e"/><path d="M180.11,118.47c0,.18,1.09,11.18-1.37,13.6s-9,1.42-10.63-1.23-3.61-6.14-1.88-10.24S179.81,115.77,180.11,118.47Z" fill="#f7931e"/><path d="M200.54,133.81c.65,5.43-6.28,13-9.2,14.45-4,2-5.56-14.64-23.16-14.57-1.14,0-6.84-2.43-9.84,5.07s0,29,2,32.75c1.76,3.31,13.5,11.25,30.25,2.75l.25-7.75s9.89-.21,15.12-7.49c4.88-6.78,7.78-17,7.32-22C209.32,135.34,204.43,132.53,200.54,133.81Z" fill="#8787d1"/><path d="M199.16,164.61a21.67,21.67,0,0,1-25.39-8.43c-.35-.54-1.22,0-.86.5a22.68,22.68,0,0,0,26.52,8.89C200,165.36,199.77,164.39,199.16,164.61Z" fill="#124577"/><path d="M189.27,146.4a16.11,16.11,0,0,0-3.89-5.51c-1.92-1.75-4.29-2.86-6.29-4.49-.4-.33-1,.24-.58.58,1.89,1.54,4.11,2.62,6,4.21a15.51,15.51,0,0,1,4.09,5.63C188.78,147.29,189.48,146.88,189.27,146.4Z" fill="#124577"/><path d="M183,115.06c-.41-4.7-8.28-5.71-12.77-5.35s-8.91,3.78-10.47,10.79.1,6.86-1.51,10-4.48,1-4.84,6.89,2.48,5.28.48,8-5,2.8-3.24,7.92,21,11.21,26.78,6.29-1.26-9.93-1.62-13,1.89-4.21,1.62-8.08-4.62-3.64-3.72-7.55l.1-.45c-1.5-.93-3.37-3.74-1.46-5a2.07,2.07,0,0,1,2.49.15c.55-1.89,1.41-3.33,3.24-3.53C179,122,183.57,121.48,183,115.06Z" fill="#75361a"/><path d="M196.64,191.46a1.68,1.68,0,0,0-2.81-.5,18.9,18.9,0,0,1-8.31,5.28c-5.61,1.68-13.75.89-16.7-4.89-5.34-10.46-.36-23.55-5.92-33.75a11.25,11.25,0,0,0-4.17-4.44c-5-2.89-8.36.27-10,4.13-2.39,5.73-2.3,12.86-2.18,19A102,102,0,0,0,147.66,191s3.43,20.47,30.16,15a40.57,40.57,0,0,0,13.13-4.79,18,18,0,0,0,5.36-4.64A5.25,5.25,0,0,0,196.64,191.46Z" fill="#0523af"/><polygon points="354.29 66.23 260.59 10.3 260.59 88.72 354.29 141.7 354.29 66.23" fill="#0523af"/><line x1="267.81" y1="22.84" x2="267.81" y2="88.03" fill="none" stroke="#29abe2" stroke-miterlimit="10"/><line x1="284" y1="32.97" x2="284" y2="98.15" fill="none" stroke="#29abe2" stroke-miterlimit="10"/><line x1="309.3" y1="48.01" x2="309.3" y2="113.2" fill="none" stroke="#29abe2" stroke-miterlimit="10"/><line x1="327.59" y1="57.95" x2="327.59" y2="123.13" fill="none" stroke="#29abe2" stroke-miterlimit="10"/><line x1="343.96" y1="68.54" x2="343.96" y2="133.73" fill="none" stroke="#29abe2" stroke-miterlimit="10"/><path d="M269.26,78.3s4.14-20.25,12.45-16.58c8.82,3.89.79,20.58,10.35,25.55,9.25,4.81,6.57-30.4,17.27-26.25,9.55,3.71,6,17.93,6,25.2,0,3.36-1.13,15.81,5.4,17.71,11.44,3.33,6.7-30.94,21.44-23.16" fill="none" stroke="#fff" stroke-miterlimit="10"/><ellipse cx="269.26" cy="78.44" rx="1.79" ry="2.17" fill="#fff"/><ellipse cx="342.17" cy="81.26" rx="1.79" ry="2.17" fill="#fff"/><ellipse cx="301.29" cy="68.54" rx="1.79" ry="2.17" fill="#fff"/><ellipse cx="315.38" cy="83.42" rx="1.79" ry="2.17" fill="#fff"/></svg>